# xmcd
#
# Track frame offsets: 
#        150
#        13731
#        35017
#        50860
#        66464
#        83036
#
# Disc length: 1369 seconds
#
# Revision: 0
# Processed by: cddbd v1.5.2PL0 Copyright (c) Steve Scherf et al.
# Submitted via: ExactAudioCopy v0.99pb4
#
DISCID=52055706
DTITLE=Rockit City - Rockit City
DYEAR=2011
DGENRE=Country
TTITLE0=Stuck
TTITLE1=Emily's List
TTITLE2=Turn It Off
TTITLE3=If Only Love Was Enough
TTITLE4=Too Late Now
TTITLE5=God Save Us All From Religion
EXTD=
EXTT0=
EXTT1=
EXTT2=
EXTT3=
EXTT4=
EXTT5=
PLAYORDER=
